<mxfile host="app.diagrams.net" modified="2024-05-07T07:49:53.192Z" agent="Mozilla/5.0 (Windows NT 10.0; Win64; x64) AppleWebKit/537.36 (KHTML, like Gecko) Chrome/124.0.0.0 Safari/537.36" version="24.0.7" etag="peno7oU_wM3l6M5h89RT" type="github">
  <diagram name="Page-1" id="ZyrZ9CaDU5DQLpktIFDk">
    <mxGraphModel>
      <root>
        <mxCell id="0" />
        <mxCell id="1" parent="0" />
      </root>
    </mxGraphModel>
  </diagram>
</mxfile>
